# xmcd CD database file
#
# Track frame offsets:
#	182
#	9860
#	22232
#	33737
#	44545
#	57137
#	68817
#	79967
#	92147
#	106837
#	119487
#	131692
#	149082
#	161155
#	173247
#	185080
#	198170
#	209207
#	221382
#	234935
#
# Disc length: 3292 seconds
#
# Revision: 10
# Processed by: cddbd v1.5.2PL0 Copyright (c) Steve Scherf et al.
# Submitted via: CDex 1.70beta2
#
DISCID=2e0cda14
DTITLE=Otis Redding - The Ultimate Otis Redding
DYEAR=1986
DGENRE=Soul
TTITLE0=Respect
TTITLE1=(Sittin' On) The Dock Of The Bay
TTITLE2=These Arms Of Mine
TTITLE3=Pain In My Heart
TTITLE4=Come To Me
TTITLE5=Security
TTITLE6=That's How Strong My Love Is
TTITLE7=Mr. Pitiful
TTITLE8=I've Been Loving You Too Long (To Stop Now)
TTITLE9=(I Can't Get No) Satisfaction
TTITLE10=Fa-Fa-Fa-Fa-Fa (Sad Song)
TTITLE11=Try A Little Tenderness
TTITLE12=Chained And Bound
TTITLE13=Shake
TTITLE14=Ole Man Trouble
TTITLE15=Let Me Come On Home
TTITLE16=Open The Door
TTITLE17=That's What My Heart Needs
TTITLE18=Tramp
TTITLE19=I Can't Turn You Loose
EXTD=YEAR: 1986
EXTT0=
EXTT1=
EXTT2=
EXTT3=
EXTT4=
EXTT5=
EXTT6=
EXTT7=
EXTT8=
EXTT9=
EXTT10=
EXTT11=
EXTT12=
EXTT13=
EXTT14=
EXTT15=
EXTT16=
EXTT17=
EXTT18=
EXTT19=
PLAYORDER=
